<?xml version="1.0" standalone="no"?>
<!DOCTYPE svg PUBLIC "-//W3C//DTD SVG 20010904//EN"
 "http://www.w3.org/TR/2001/REC-SVG-20010904/DTD/svg10.dtd">
<svg version="1.0" xmlns="http://www.w3.org/2000/svg"
 width="512.000000pt" height="512.000000pt" viewBox="0 0 512.000000 512.000000"
 preserveAspectRatio="xMidYMid meet">

<g transform="translate(0.000000,512.000000) scale(0.100000,-0.100000)"
fill="#000000" stroke="none">
<path d="M1003 5106 c-176 -43 -319 -195 -353 -375 -15 -79 -14 -4362 1 -4433
17 -77 50 -137 107 -190 86 -80 185 -115 298 -105 135 13 111 -8 769 648 414
412 612 603 637 614 48 19 148 19 196 0 25 -11 223 -202 637 -614 658 -656
634 -635 769 -648 188 -17 360 105 402 286 11 46 14 456 14 2222 0 1424 -3
2185 -10 2220 -35 184 -187 340 -368 378 -81 17 -3029 14 -3099 -3z m3101
-320 c21 -16 47 -47 57 -70 18 -40 19 -113 19 -2204 l0 -2163 -25 -24 c-16
-16 -35 -25 -57 -25 -29 0 -85 52 -633 599 -641 639 -631 630 -766 666 -124
33 -297 11 -409 -52 -27 -16 -273 -253 -630 -608 -322 -321 -595 -588 -607
-594 -34 -17 -62 -13 -88 14 l-25 24 0 2161 c0 2351 -4 2197 53 2259 49 53
-31 50 1578 48 l1496 -2 37 -29z"/>
</g>
</svg>
